<svg x="0" y="0" width="300" height="300" version="1.1" xmlns="http://www.w3.org/2000/svg" xmlns:xlink="http://www.w3.org/1999/xlink">
  <g
    data-paper-data="{&quot;description&quot;:&quot;Logo for WeNoTyRe\n=================\n\nThis logo was generated by MarkMaker and is composed of elements designed by others.\n\nThe font is Muli Light Italic designed by Vernon Adams and released under the OFL license via Google Fonts: https://www.google.com/fonts/specimen/Muli. The font includes this copyright statement: Copyright (c) 2011, Vernon Adams (vern@newtypography.co.uk) with Reserved Font Name 'Muli'. All rights reserved.&quot;}"
    fill="none"
    stroke="none"
    stroke-width="none"
    stroke-linecap="butt"
    stroke-linejoin="miter"
    stroke-miterlimit="10"
    stroke-dasharray="none"
    stroke-dashoffset="0"
    font-family="sans-serif"
    font-weight="normal"
    font-size="12"
    text-anchor="start"
    mix-blend-mode="normal">
    <path d="M30,150c0,-66.27417 53.72583,-120 120,-120c66.27417,0 120,53.72583 120,120c0,66.27417 -53.72583,120 -120,120c-66.27417,0 -120,-53.72583 -120,-120z" fill="#53584a" stroke="none" stroke-width="0" stroke-dasharray=""></path>
    <g data-paper-data="{&quot;elementType&quot;:&quot;logo&quot;}" fill="none" stroke="#ffffff" stroke-width="1.05" stroke-dasharray="2.1,0.7875000000000001">
      <g data-paper-data="{&quot;elementType&quot;:&quot;text&quot;}">
        <g data-paper-data="{&quot;baseline&quot;:72.412109375,&quot;elementType&quot;:&quot;row&quot;}">
          <g data-paper-data="{&quot;baselineProportion&quot;:0.9847277556440903,&quot;fontSize&quot;:100,&quot;baseline&quot;:72.412109375,&quot;elementType&quot;:&quot;word&quot;}">
            <path
              d="M72.64892,160.19157l1.18364,-3.8276l6.27173,-17.52396l1.95223,0l-8.27008,22.38148l-2.67471,0l-4.84215,-20.36776l-8.13173,20.36776l-2.79769,0l-4.78066,-22.38148l2.18281,0l3.4433,17.20115l0.76859,4.28876l1.3681,-3.99669l6.96347,-17.49322l2.30578,0l4.15041,17.26264l0.90694,4.08892z"
              data-paper-data="{&quot;elementType&quot;:&quot;letter&quot;,&quot;baseline&quot;:71.09375,&quot;baselineProportion&quot;:1,&quot;fontSize&quot;:100}"></path>
            <path
              d="M100.99901,159.46909l-0.13835,1.7524l-13.37355,0l1.82926,-22.38148l12.85091,0l-0.13835,1.7524l-10.91405,0l-0.64562,8.27008l10.31454,0l-0.15372,1.73702l-10.31454,0l-0.73785,8.86958l11.42132,0z"
              data-paper-data="{&quot;elementType&quot;:&quot;letter&quot;,&quot;baseline&quot;:71.09375,&quot;baselineProportion&quot;:1,&quot;fontSize&quot;:100}"></path>
            <path
              d="M113.05488,140.89984l-0.32281,4.08892l-1.32198,16.23272l-1.95223,0l1.82926,-22.38148l2.62859,0l10.26843,17.41636l1.79851,3.39719l0.32281,-5.22644l1.22975,-15.5871l1.93686,0l-1.82926,22.38148l-2.67471,0l-10.31454,-17.40099l-1.59868,-2.92066z"
              data-paper-data="{&quot;elementType&quot;:&quot;letter&quot;,&quot;baseline&quot;:71.09375,&quot;baselineProportion&quot;:1,&quot;fontSize&quot;:100}"></path>
            <path
              d="M158.89818,148.9086c0,1.84463 -0.27669,3.54322 -0.83008,5.09578c-0.55339,1.55256 -1.34504,2.88992 -2.37496,4.01207c-1.02992,1.12215 -2.2776,1.99578 -3.74306,2.62091c-1.46545,0.62512 -3.11025,0.93769 -4.93438,0.93769c-1.56793,0 -2.96934,-0.24595 -4.20421,-0.73785c-1.23488,-0.4919 -2.28016,-1.19132 -3.13587,-2.09826c-0.8557,-0.90694 -1.50645,-2.00347 -1.95223,-3.28959c-0.44579,-1.28612 -0.66868,-2.72339 -0.66868,-4.31182c0,-1.84463 0.27669,-3.54322 0.83008,-5.09578c0.55339,-1.55256 1.34504,-2.89248 2.37496,-4.01975c1.02992,-1.12727 2.28273,-2.00859 3.75843,-2.64397c1.4757,-0.63537 3.13587,-0.95306 4.98049,-0.95306c1.55769,0 2.94884,0.24851 4.17347,0.74554c1.22463,0.49702 2.26223,1.20157 3.11281,2.11364c0.85058,0.91207 1.49876,2.01372 1.94454,3.30496c0.44579,1.29124 0.66868,2.73107 0.66868,4.3195 M139.16066,150.93769c0,1.2605 0.16909,2.43132 0.50727,3.51248c0.33818,1.08116 0.84033,2.01884 1.50645,2.81306c0.66612,0.79421 1.50132,1.41934 2.50562,1.87537c1.0043,0.45603 2.16744,0.68405 3.48942,0.68405c1.55769,0 2.93091,-0.27926 4.11967,-0.83777c1.18876,-0.55851 2.18281,-1.32967 2.98215,-2.31347c0.79934,-0.9838 1.4014,-2.14438 1.8062,-3.48173c0.40479,-1.33736 0.60719,-2.78488 0.60719,-4.34256c0,-1.20926 -0.1614,-2.34165 -0.48421,-3.39719c-0.32281,-1.05554 -0.81471,-1.97273 -1.4757,-2.75157c-0.66099,-0.77884 -1.48851,-1.39372 -2.48256,-1.84463c-0.99405,-0.45091 -2.16744,-0.67636 -3.52016,-0.67636c-1.52694,0 -2.88479,0.29719 -4.07355,0.89157c-1.18876,0.59438 -2.1905,1.38859 -3.00521,2.38264c-0.81471,0.99405 -1.43215,2.13926 -1.85231,3.43562c-0.42017,1.29636 -0.63025,2.64653 -0.63025,4.05049z"
              data-paper-data="{&quot;elementType&quot;:&quot;letter&quot;,&quot;baseline&quot;:72.412109375,&quot;baselineProportion&quot;:0.9847277556440903,&quot;fontSize&quot;:100}"></path>
            <path
              d="M169.92413,161.22148l1.66016,-20.62909l-7.39388,0l0.13835,-1.7524l16.72462,0l-0.13835,1.7524l-7.31702,0l-1.72165,20.62909l-1.95223,0z"
              data-paper-data="{&quot;elementType&quot;:&quot;letter&quot;,&quot;baseline&quot;:71.09375,&quot;baselineProportion&quot;:1,&quot;fontSize&quot;:100}"></path>
            <path
              d="M195.29206,152.18281l-0.78397,9.03868l-1.95223,0l0.78397,-8.94644l-7.20942,-13.43504l2.21355,0l6.08727,11.7595l8.0395,-11.7595l2.12132,0l-9.3,13.34281z"
              data-paper-data="{&quot;elementType&quot;:&quot;letter&quot;,&quot;baseline&quot;:71.09375,&quot;baselineProportion&quot;:1,&quot;fontSize&quot;:100}"></path>
            <path
              d="M224.16479,161.22148l-1.84463,-6.39471c-0.21521,-0.7481 -0.44322,-1.37066 -0.68405,-1.86769c-0.24083,-0.49702 -0.53802,-0.89413 -0.89157,-1.19132c-0.35355,-0.29719 -0.78653,-0.50727 -1.29893,-0.63025c-0.5124,-0.12298 -1.15289,-0.18446 -1.92149,-0.18446l-4.58083,0l-0.86083,10.26843l-1.93686,0l1.82926,-22.38148l5.16496,0c0.58413,0 1.21694,0.01025 1.89843,0.03074c0.68149,0.0205 1.36554,0.08198 2.05215,0.18446c0.68661,0.10248 1.3476,0.26132 1.98297,0.47653c0.63537,0.21521 1.19901,0.52008 1.69091,0.91463c0.4919,0.39455 0.88645,0.89413 1.18364,1.49876c0.29719,0.60463 0.44579,1.34248 0.44579,2.21355c0,0.81983 -0.14091,1.56025 -0.42273,2.22124c-0.28182,0.66099 -0.67893,1.24256 -1.19132,1.74471c-0.5124,0.50215 -1.12215,0.91975 -1.82926,1.25281c-0.70711,0.33306 -1.49107,0.57132 -2.3519,0.71479c-0.0205,0.06149 -0.03074,0.11785 -0.03074,0.16909c0.71736,0.14347 1.2938,0.39198 1.72934,0.74554c0.43554,0.35355 0.80959,0.83777 1.12215,1.45264c0.31256,0.61488 0.60463,1.37835 0.8762,2.29041c0.27157,0.91207 0.61231,1.99835 1.02223,3.25884l0.9838,3.21273l-2.13669,0 M213.12777,149.18529l4.51934,0c0.77884,0 1.56025,-0.06917 2.34421,-0.20752c0.78397,-0.13835 1.49107,-0.3843 2.12132,-0.73785c0.63025,-0.35355 1.14521,-0.83264 1.54488,-1.43727c0.39967,-0.60463 0.5995,-1.37322 0.5995,-2.30578c0,-0.77884 -0.14603,-1.4219 -0.4381,-1.92917c-0.29207,-0.50727 -0.69686,-0.90694 -1.21438,-1.19901c-0.51752,-0.29207 -1.1324,-0.49446 -1.84463,-0.60719c-0.71223,-0.11273 -1.48851,-0.16909 -2.32884,-0.16909l-4.62694,0l-0.67636,8.59289z"
              data-paper-data="{&quot;elementType&quot;:&quot;letter&quot;,&quot;baseline&quot;:71.09375,&quot;baselineProportion&quot;:1,&quot;fontSize&quot;:100}"></path>
            <path
              d="M248.27223,159.46909l-0.13835,1.7524l-13.37355,0l1.82926,-22.38148l12.85091,0l-0.13835,1.7524l-10.91405,0l-0.64562,8.27008l10.31454,0l-0.15372,1.73702l-10.31454,0l-0.73785,8.86958l11.42132,0z"
              data-paper-data="{&quot;elementType&quot;:&quot;letter&quot;,&quot;baseline&quot;:71.09375,&quot;baselineProportion&quot;:1,&quot;fontSize&quot;:100}"></path>
          </g>
        </g>
      </g>
    </g>
  </g>
</svg>
